<mxfile host="app.diagrams.net" modified="2022-11-06T10:39:02.037Z" agent="5.0 (Windows NT 10.0; Win64; x64) AppleWebKit/537.36 (KHTML, like Gecko) Chrome/107.0.0.0 Safari/537.36" etag="QWsHhncgEmsb7hNleGJn" version="20.5.1" type="github">
  <diagram id="oxue3pN0O4KAORI_SsjF" name="Trang-1">
    <mxGraphModel dx="2720" dy="1611" grid="1" gridSize="10" guides="1" tooltips="1" connect="1" arrows="1" fold="1" page="1" pageScale="1" pageWidth="850" pageHeight="1100" math="0" shadow="0">
      <root>
        <mxCell id="0" />
        <mxCell id="1" parent="0" />
        <mxCell id="N1hwtNOvV3p_5AkpbYzc-65" style="edgeStyle=none;rounded=0;orthogonalLoop=1;jettySize=auto;html=1;exitX=0.5;exitY=0;exitDx=0;exitDy=0;entryX=0.5;entryY=1;entryDx=0;entryDy=0;endArrow=none;endFill=0;" edge="1" parent="1" source="42W1X6iEcGKFLnr81iRU-1" target="N1hwtNOvV3p_5AkpbYzc-64">
          <mxGeometry relative="1" as="geometry" />
        </mxCell>
        <mxCell id="42W1X6iEcGKFLnr81iRU-1" value="episode" style="whiteSpace=wrap;html=1;align=center;" parent="1" vertex="1">
          <mxGeometry x="200" y="540" width="100" height="40" as="geometry" />
        </mxCell>
        <mxCell id="42W1X6iEcGKFLnr81iRU-2" value="duaration" style="ellipse;whiteSpace=wrap;html=1;align=center;" parent="1" vertex="1">
          <mxGeometry x="340" y="740" width="100" height="40" as="geometry" />
        </mxCell>
        <mxCell id="42W1X6iEcGKFLnr81iRU-3" value="time" style="ellipse;whiteSpace=wrap;html=1;align=center;" parent="1" vertex="1">
          <mxGeometry x="200" y="740" width="100" height="40" as="geometry" />
        </mxCell>
        <mxCell id="42W1X6iEcGKFLnr81iRU-4" value="date" style="ellipse;whiteSpace=wrap;html=1;align=center;" parent="1" vertex="1">
          <mxGeometry x="70" y="740" width="100" height="40" as="geometry" />
        </mxCell>
        <mxCell id="42W1X6iEcGKFLnr81iRU-19" style="rounded=0;orthogonalLoop=1;jettySize=auto;html=1;exitX=1;exitY=0.5;exitDx=0;exitDy=0;entryX=0;entryY=0.5;entryDx=0;entryDy=0;endArrow=none;endFill=0;" parent="1" source="42W1X6iEcGKFLnr81iRU-27" target="42W1X6iEcGKFLnr81iRU-13" edge="1">
          <mxGeometry relative="1" as="geometry">
            <mxPoint x="590" y="590" as="sourcePoint" />
          </mxGeometry>
        </mxCell>
        <mxCell id="42W1X6iEcGKFLnr81iRU-20" style="edgeStyle=none;rounded=0;orthogonalLoop=1;jettySize=auto;html=1;exitX=1;exitY=0.5;exitDx=0;exitDy=0;entryX=0;entryY=0.5;entryDx=0;entryDy=0;endArrow=none;endFill=0;" parent="1" source="42W1X6iEcGKFLnr81iRU-27" target="42W1X6iEcGKFLnr81iRU-7" edge="1">
          <mxGeometry relative="1" as="geometry">
            <mxPoint x="590" y="590" as="sourcePoint" />
          </mxGeometry>
        </mxCell>
        <mxCell id="42W1X6iEcGKFLnr81iRU-7" value="name&amp;nbsp;" style="ellipse;whiteSpace=wrap;html=1;align=center;" parent="1" vertex="1">
          <mxGeometry x="750" y="480" width="100" height="40" as="geometry" />
        </mxCell>
        <mxCell id="42W1X6iEcGKFLnr81iRU-8" value="" style="endArrow=none;html=1;rounded=0;exitX=0.5;exitY=1;exitDx=0;exitDy=0;entryX=0.5;entryY=0;entryDx=0;entryDy=0;" parent="1" source="42W1X6iEcGKFLnr81iRU-1" target="42W1X6iEcGKFLnr81iRU-4" edge="1">
          <mxGeometry relative="1" as="geometry">
            <mxPoint x="430" y="570" as="sourcePoint" />
            <mxPoint x="590" y="570" as="targetPoint" />
          </mxGeometry>
        </mxCell>
        <mxCell id="42W1X6iEcGKFLnr81iRU-21" style="edgeStyle=none;rounded=0;orthogonalLoop=1;jettySize=auto;html=1;exitX=0;exitY=0.5;exitDx=0;exitDy=0;entryX=1;entryY=0.5;entryDx=0;entryDy=0;endArrow=none;endFill=0;" parent="1" source="42W1X6iEcGKFLnr81iRU-9" target="42W1X6iEcGKFLnr81iRU-27" edge="1">
          <mxGeometry relative="1" as="geometry">
            <mxPoint x="590" y="590" as="targetPoint" />
          </mxGeometry>
        </mxCell>
        <mxCell id="42W1X6iEcGKFLnr81iRU-9" value="year release" style="ellipse;whiteSpace=wrap;html=1;align=center;" parent="1" vertex="1">
          <mxGeometry x="750" y="540" width="100" height="40" as="geometry" />
        </mxCell>
        <mxCell id="42W1X6iEcGKFLnr81iRU-22" style="edgeStyle=none;rounded=0;orthogonalLoop=1;jettySize=auto;html=1;exitX=0;exitY=0.5;exitDx=0;exitDy=0;entryX=1;entryY=0.5;entryDx=0;entryDy=0;endArrow=none;endFill=0;" parent="1" source="N1hwtNOvV3p_5AkpbYzc-68" target="42W1X6iEcGKFLnr81iRU-27" edge="1">
          <mxGeometry relative="1" as="geometry">
            <mxPoint x="590" y="590" as="targetPoint" />
            <mxPoint x="750" y="620" as="sourcePoint" />
          </mxGeometry>
        </mxCell>
        <mxCell id="42W1X6iEcGKFLnr81iRU-13" value="song id" style="ellipse;whiteSpace=wrap;html=1;align=center;fontStyle=4;" parent="1" vertex="1">
          <mxGeometry x="750" y="410" width="100" height="40" as="geometry" />
        </mxCell>
        <mxCell id="42W1X6iEcGKFLnr81iRU-23" style="edgeStyle=none;rounded=0;orthogonalLoop=1;jettySize=auto;html=1;exitX=0;exitY=0.5;exitDx=0;exitDy=0;entryX=1;entryY=0.5;entryDx=0;entryDy=0;endArrow=none;endFill=0;" parent="1" source="N1hwtNOvV3p_5AkpbYzc-69" target="42W1X6iEcGKFLnr81iRU-27" edge="1">
          <mxGeometry relative="1" as="geometry">
            <mxPoint x="590" y="590" as="targetPoint" />
            <mxPoint x="750" y="680" as="sourcePoint" />
          </mxGeometry>
        </mxCell>
        <mxCell id="42W1X6iEcGKFLnr81iRU-15" value="" style="endArrow=none;html=1;rounded=0;entryX=0.5;entryY=0;entryDx=0;entryDy=0;exitX=0.5;exitY=1;exitDx=0;exitDy=0;" parent="1" source="42W1X6iEcGKFLnr81iRU-1" target="42W1X6iEcGKFLnr81iRU-3" edge="1">
          <mxGeometry relative="1" as="geometry">
            <mxPoint x="370" y="470" as="sourcePoint" />
            <mxPoint x="530" y="470" as="targetPoint" />
          </mxGeometry>
        </mxCell>
        <mxCell id="42W1X6iEcGKFLnr81iRU-16" value="" style="endArrow=none;html=1;rounded=0;exitX=0.5;exitY=1;exitDx=0;exitDy=0;entryX=0.5;entryY=0;entryDx=0;entryDy=0;" parent="1" source="42W1X6iEcGKFLnr81iRU-1" target="42W1X6iEcGKFLnr81iRU-2" edge="1">
          <mxGeometry relative="1" as="geometry">
            <mxPoint x="370" y="470" as="sourcePoint" />
            <mxPoint x="530" y="470" as="targetPoint" />
          </mxGeometry>
        </mxCell>
        <mxCell id="42W1X6iEcGKFLnr81iRU-26" style="edgeStyle=none;rounded=0;orthogonalLoop=1;jettySize=auto;html=1;exitX=0;exitY=0.5;exitDx=0;exitDy=0;entryX=1;entryY=0.5;entryDx=0;entryDy=0;endArrow=none;endFill=0;" parent="1" source="42W1X6iEcGKFLnr81iRU-25" target="42W1X6iEcGKFLnr81iRU-1" edge="1">
          <mxGeometry relative="1" as="geometry">
            <Array as="points" />
          </mxGeometry>
        </mxCell>
        <mxCell id="42W1X6iEcGKFLnr81iRU-28" style="edgeStyle=none;rounded=0;orthogonalLoop=1;jettySize=auto;html=1;exitX=1;exitY=0.5;exitDx=0;exitDy=0;entryX=0;entryY=0.5;entryDx=0;entryDy=0;endArrow=none;endFill=0;" parent="1" source="42W1X6iEcGKFLnr81iRU-25" target="42W1X6iEcGKFLnr81iRU-27" edge="1">
          <mxGeometry relative="1" as="geometry" />
        </mxCell>
        <mxCell id="42W1X6iEcGKFLnr81iRU-25" value="perform" style="shape=rhombus;perimeter=rhombusPerimeter;whiteSpace=wrap;html=1;align=center;" parent="1" vertex="1">
          <mxGeometry x="410" y="530" width="120" height="60" as="geometry" />
        </mxCell>
        <mxCell id="42W1X6iEcGKFLnr81iRU-27" value="song" style="whiteSpace=wrap;html=1;align=center;" parent="1" vertex="1">
          <mxGeometry x="600" y="540" width="100" height="40" as="geometry" />
        </mxCell>
        <mxCell id="42W1X6iEcGKFLnr81iRU-64" style="edgeStyle=none;rounded=0;orthogonalLoop=1;jettySize=auto;html=1;exitX=0.5;exitY=1;exitDx=0;exitDy=0;entryX=0.5;entryY=0;entryDx=0;entryDy=0;endArrow=none;endFill=0;" parent="1" source="42W1X6iEcGKFLnr81iRU-63" target="42W1X6iEcGKFLnr81iRU-27" edge="1">
          <mxGeometry relative="1" as="geometry" />
        </mxCell>
        <mxCell id="42W1X6iEcGKFLnr81iRU-63" value="keep track" style="shape=rhombus;perimeter=rhombusPerimeter;whiteSpace=wrap;html=1;align=center;" parent="1" vertex="1">
          <mxGeometry x="590" y="410" width="120" height="60" as="geometry" />
        </mxCell>
        <mxCell id="42W1X6iEcGKFLnr81iRU-68" style="edgeStyle=none;rounded=0;orthogonalLoop=1;jettySize=auto;html=1;exitX=0.5;exitY=1;exitDx=0;exitDy=0;entryX=0.5;entryY=0;entryDx=0;entryDy=0;endArrow=none;endFill=0;" parent="1" source="uAWmQDvGzYbDUcG28lEL-1" target="42W1X6iEcGKFLnr81iRU-63" edge="1">
          <mxGeometry relative="1" as="geometry">
            <mxPoint x="575" y="360" as="sourcePoint" />
          </mxGeometry>
        </mxCell>
        <mxCell id="42W1X6iEcGKFLnr81iRU-69" style="edgeStyle=none;rounded=0;orthogonalLoop=1;jettySize=auto;html=1;exitX=0.5;exitY=1;exitDx=0;exitDy=0;entryX=0.5;entryY=0;entryDx=0;entryDy=0;endArrow=none;endFill=0;" parent="1" source="uAWmQDvGzYbDUcG28lEL-2" target="42W1X6iEcGKFLnr81iRU-63" edge="1">
          <mxGeometry relative="1" as="geometry">
            <mxPoint x="740" y="360" as="sourcePoint" />
          </mxGeometry>
        </mxCell>
        <mxCell id="61Q3ps2VChqTs0MCk_AO-31" style="edgeStyle=none;rounded=0;orthogonalLoop=1;jettySize=auto;html=1;exitX=0;exitY=0.5;exitDx=0;exitDy=0;endArrow=none;endFill=0;entryX=1;entryY=0.5;entryDx=0;entryDy=0;" parent="1" source="uAWmQDvGzYbDUcG28lEL-1" target="61Q3ps2VChqTs0MCk_AO-30" edge="1">
          <mxGeometry relative="1" as="geometry">
            <mxPoint x="200" y="260" as="targetPoint" />
          </mxGeometry>
        </mxCell>
        <mxCell id="uAWmQDvGzYbDUcG28lEL-1" value="trainee" style="whiteSpace=wrap;html=1;align=center;" parent="1" vertex="1">
          <mxGeometry x="390" y="240" width="100" height="40" as="geometry" />
        </mxCell>
        <mxCell id="uAWmQDvGzYbDUcG28lEL-2" value="group" style="whiteSpace=wrap;html=1;align=center;" parent="1" vertex="1">
          <mxGeometry x="830" y="240" width="100" height="40" as="geometry" />
        </mxCell>
        <mxCell id="61Q3ps2VChqTs0MCk_AO-10" style="edgeStyle=none;rounded=0;orthogonalLoop=1;jettySize=auto;html=1;exitX=0;exitY=0.5;exitDx=0;exitDy=0;entryX=0.5;entryY=0;entryDx=0;entryDy=0;endArrow=none;endFill=0;" parent="1" source="uAWmQDvGzYbDUcG28lEL-3" target="uAWmQDvGzYbDUcG28lEL-1" edge="1">
          <mxGeometry relative="1" as="geometry" />
        </mxCell>
        <mxCell id="uAWmQDvGzYbDUcG28lEL-3" value="result" style="ellipse;whiteSpace=wrap;html=1;align=center;" parent="1" vertex="1">
          <mxGeometry x="570" y="140" width="100" height="40" as="geometry" />
        </mxCell>
        <mxCell id="61Q3ps2VChqTs0MCk_AO-3" style="edgeStyle=none;rounded=0;orthogonalLoop=1;jettySize=auto;html=1;exitX=1;exitY=0.5;exitDx=0;exitDy=0;entryX=0.5;entryY=0;entryDx=0;entryDy=0;endArrow=none;endFill=0;" parent="1" source="61Q3ps2VChqTs0MCk_AO-1" target="uAWmQDvGzYbDUcG28lEL-1" edge="1">
          <mxGeometry relative="1" as="geometry" />
        </mxCell>
        <mxCell id="61Q3ps2VChqTs0MCk_AO-1" value="&lt;u&gt;SNN&lt;/u&gt;" style="ellipse;whiteSpace=wrap;html=1;align=center;" parent="1" vertex="1">
          <mxGeometry x="200" y="200" width="100" height="40" as="geometry" />
        </mxCell>
        <mxCell id="61Q3ps2VChqTs0MCk_AO-7" style="edgeStyle=none;rounded=0;orthogonalLoop=1;jettySize=auto;html=1;exitX=1;exitY=0.5;exitDx=0;exitDy=0;endArrow=none;endFill=0;entryX=0.5;entryY=0;entryDx=0;entryDy=0;" parent="1" source="61Q3ps2VChqTs0MCk_AO-4" target="uAWmQDvGzYbDUcG28lEL-1" edge="1">
          <mxGeometry relative="1" as="geometry">
            <mxPoint x="530" y="240" as="targetPoint" />
          </mxGeometry>
        </mxCell>
        <mxCell id="61Q3ps2VChqTs0MCk_AO-4" value="firstName" style="ellipse;whiteSpace=wrap;html=1;align=center;" parent="1" vertex="1">
          <mxGeometry x="200" y="140" width="100" height="40" as="geometry" />
        </mxCell>
        <mxCell id="61Q3ps2VChqTs0MCk_AO-6" style="edgeStyle=none;rounded=0;orthogonalLoop=1;jettySize=auto;html=1;exitX=1;exitY=0.5;exitDx=0;exitDy=0;endArrow=none;endFill=0;entryX=0.5;entryY=0;entryDx=0;entryDy=0;" parent="1" source="61Q3ps2VChqTs0MCk_AO-5" target="uAWmQDvGzYbDUcG28lEL-1" edge="1">
          <mxGeometry relative="1" as="geometry">
            <mxPoint x="530" y="240" as="targetPoint" />
          </mxGeometry>
        </mxCell>
        <mxCell id="61Q3ps2VChqTs0MCk_AO-5" value="lastName" style="ellipse;whiteSpace=wrap;html=1;align=center;" parent="1" vertex="1">
          <mxGeometry x="200" y="80" width="100" height="40" as="geometry" />
        </mxCell>
        <mxCell id="61Q3ps2VChqTs0MCk_AO-9" style="edgeStyle=none;rounded=0;orthogonalLoop=1;jettySize=auto;html=1;exitX=0.5;exitY=1;exitDx=0;exitDy=0;endArrow=none;endFill=0;entryX=0.5;entryY=0;entryDx=0;entryDy=0;" parent="1" source="61Q3ps2VChqTs0MCk_AO-8" target="uAWmQDvGzYbDUcG28lEL-1" edge="1">
          <mxGeometry relative="1" as="geometry">
            <mxPoint x="530" y="240" as="targetPoint" />
          </mxGeometry>
        </mxCell>
        <mxCell id="61Q3ps2VChqTs0MCk_AO-8" value="address" style="ellipse;whiteSpace=wrap;html=1;align=center;" parent="1" vertex="1">
          <mxGeometry x="280" y="20" width="100" height="40" as="geometry" />
        </mxCell>
        <mxCell id="61Q3ps2VChqTs0MCk_AO-14" style="edgeStyle=none;rounded=0;orthogonalLoop=1;jettySize=auto;html=1;exitX=0.5;exitY=1;exitDx=0;exitDy=0;endArrow=none;endFill=0;" parent="1" source="61Q3ps2VChqTs0MCk_AO-11" edge="1">
          <mxGeometry relative="1" as="geometry">
            <mxPoint x="440" y="240" as="targetPoint" />
          </mxGeometry>
        </mxCell>
        <mxCell id="61Q3ps2VChqTs0MCk_AO-11" value="phoneNumber" style="ellipse;whiteSpace=wrap;html=1;align=center;" parent="1" vertex="1">
          <mxGeometry x="390" y="20" width="100" height="40" as="geometry" />
        </mxCell>
        <mxCell id="61Q3ps2VChqTs0MCk_AO-15" style="edgeStyle=none;rounded=0;orthogonalLoop=1;jettySize=auto;html=1;exitX=0.5;exitY=1;exitDx=0;exitDy=0;endArrow=none;endFill=0;" parent="1" source="61Q3ps2VChqTs0MCk_AO-12" edge="1">
          <mxGeometry relative="1" as="geometry">
            <mxPoint x="440" y="240" as="targetPoint" />
          </mxGeometry>
        </mxCell>
        <mxCell id="61Q3ps2VChqTs0MCk_AO-12" value="birthday&lt;span style=&quot;color: rgba(0, 0, 0, 0); font-family: monospace; font-size: 0px; text-align: start;&quot;&gt;%3CmxGraphModel%3E%3Croot%3E%3CmxCell%20id%3D%220%22%2F%3E%3CmxCell%20id%3D%221%22%20parent%3D%220%22%2F%3E%3CmxCell%20id%3D%222%22%20value%3D%22phoneNumber%22%20style%3D%22ellipse%3BwhiteSpace%3Dwrap%3Bhtml%3D1%3Balign%3Dcenter%3B%22%20vertex%3D%221%22%20parent%3D%221%22%3E%3CmxGeometry%20x%3D%22390%22%20y%3D%2220%22%20width%3D%22100%22%20height%3D%2240%22%20as%3D%22geometry%22%2F%3E%3C%2FmxCell%3E%3C%2Froot%3E%3C%2FmxGraphModel%3E&lt;/span&gt;" style="ellipse;whiteSpace=wrap;html=1;align=center;" parent="1" vertex="1">
          <mxGeometry x="500" y="20" width="100" height="40" as="geometry" />
        </mxCell>
        <mxCell id="61Q3ps2VChqTs0MCk_AO-16" style="edgeStyle=none;rounded=0;orthogonalLoop=1;jettySize=auto;html=1;exitX=0;exitY=0.5;exitDx=0;exitDy=0;entryX=0.5;entryY=0;entryDx=0;entryDy=0;endArrow=none;endFill=0;" parent="1" source="61Q3ps2VChqTs0MCk_AO-13" target="uAWmQDvGzYbDUcG28lEL-1" edge="1">
          <mxGeometry relative="1" as="geometry" />
        </mxCell>
        <mxCell id="61Q3ps2VChqTs0MCk_AO-13" value="photo" style="ellipse;whiteSpace=wrap;html=1;align=center;" parent="1" vertex="1">
          <mxGeometry x="570" y="80" width="100" height="40" as="geometry" />
        </mxCell>
        <mxCell id="61Q3ps2VChqTs0MCk_AO-32" style="edgeStyle=none;rounded=0;orthogonalLoop=1;jettySize=auto;html=1;exitX=1;exitY=0.5;exitDx=0;exitDy=0;entryX=0;entryY=0.5;entryDx=0;entryDy=0;endArrow=none;endFill=0;" parent="1" source="61Q3ps2VChqTs0MCk_AO-19" target="61Q3ps2VChqTs0MCk_AO-30" edge="1">
          <mxGeometry relative="1" as="geometry" />
        </mxCell>
        <mxCell id="61Q3ps2VChqTs0MCk_AO-19" value="Company" style="whiteSpace=wrap;html=1;align=center;" parent="1" vertex="1">
          <mxGeometry x="-170" y="240" width="100" height="40" as="geometry" />
        </mxCell>
        <mxCell id="61Q3ps2VChqTs0MCk_AO-29" style="edgeStyle=none;rounded=0;orthogonalLoop=1;jettySize=auto;html=1;exitX=1;exitY=0.5;exitDx=0;exitDy=0;endArrow=none;endFill=0;" parent="1" source="61Q3ps2VChqTs0MCk_AO-20" edge="1">
          <mxGeometry relative="1" as="geometry">
            <mxPoint x="-120" y="240" as="targetPoint" />
          </mxGeometry>
        </mxCell>
        <mxCell id="61Q3ps2VChqTs0MCk_AO-20" value="&lt;u&gt;CompanyNumber&lt;/u&gt;" style="ellipse;whiteSpace=wrap;html=1;align=center;" parent="1" vertex="1">
          <mxGeometry x="-280" y="200" width="100" height="40" as="geometry" />
        </mxCell>
        <mxCell id="61Q3ps2VChqTs0MCk_AO-28" style="edgeStyle=none;rounded=0;orthogonalLoop=1;jettySize=auto;html=1;exitX=1;exitY=0.5;exitDx=0;exitDy=0;endArrow=none;endFill=0;" parent="1" source="61Q3ps2VChqTs0MCk_AO-21" edge="1">
          <mxGeometry relative="1" as="geometry">
            <mxPoint x="-120" y="240" as="targetPoint" />
          </mxGeometry>
        </mxCell>
        <mxCell id="61Q3ps2VChqTs0MCk_AO-21" value="CompanyName" style="ellipse;whiteSpace=wrap;html=1;align=center;" parent="1" vertex="1">
          <mxGeometry x="-280" y="140" width="100" height="40" as="geometry" />
        </mxCell>
        <mxCell id="61Q3ps2VChqTs0MCk_AO-25" style="edgeStyle=none;rounded=0;orthogonalLoop=1;jettySize=auto;html=1;exitX=1;exitY=0.5;exitDx=0;exitDy=0;entryX=0.5;entryY=0;entryDx=0;entryDy=0;endArrow=none;endFill=0;" parent="1" source="61Q3ps2VChqTs0MCk_AO-22" target="61Q3ps2VChqTs0MCk_AO-19" edge="1">
          <mxGeometry relative="1" as="geometry" />
        </mxCell>
        <mxCell id="61Q3ps2VChqTs0MCk_AO-22" value="address" style="ellipse;whiteSpace=wrap;html=1;align=center;" parent="1" vertex="1">
          <mxGeometry x="-280" y="80" width="100" height="40" as="geometry" />
        </mxCell>
        <mxCell id="61Q3ps2VChqTs0MCk_AO-27" style="edgeStyle=none;rounded=0;orthogonalLoop=1;jettySize=auto;html=1;exitX=0;exitY=0.5;exitDx=0;exitDy=0;endArrow=none;endFill=0;entryX=0.5;entryY=0;entryDx=0;entryDy=0;" parent="1" source="61Q3ps2VChqTs0MCk_AO-23" target="61Q3ps2VChqTs0MCk_AO-19" edge="1">
          <mxGeometry relative="1" as="geometry">
            <mxPoint x="-130" y="230" as="targetPoint" />
          </mxGeometry>
        </mxCell>
        <mxCell id="61Q3ps2VChqTs0MCk_AO-23" value="establishDate" style="ellipse;whiteSpace=wrap;html=1;align=center;" parent="1" vertex="1">
          <mxGeometry x="-60" y="200" width="100" height="40" as="geometry" />
        </mxCell>
        <mxCell id="61Q3ps2VChqTs0MCk_AO-26" style="edgeStyle=none;rounded=0;orthogonalLoop=1;jettySize=auto;html=1;exitX=0;exitY=0.5;exitDx=0;exitDy=0;endArrow=none;endFill=0;entryX=0.5;entryY=0;entryDx=0;entryDy=0;" parent="1" source="61Q3ps2VChqTs0MCk_AO-24" target="61Q3ps2VChqTs0MCk_AO-19" edge="1">
          <mxGeometry relative="1" as="geometry">
            <mxPoint x="-120" y="230" as="targetPoint" />
          </mxGeometry>
        </mxCell>
        <mxCell id="61Q3ps2VChqTs0MCk_AO-24" value="phoneNumber" style="ellipse;whiteSpace=wrap;html=1;align=center;" parent="1" vertex="1">
          <mxGeometry x="-60" y="140" width="100" height="40" as="geometry" />
        </mxCell>
        <mxCell id="N1hwtNOvV3p_5AkpbYzc-2" style="edgeStyle=none;rounded=0;orthogonalLoop=1;jettySize=auto;html=1;exitX=0.5;exitY=0;exitDx=0;exitDy=0;entryX=0.5;entryY=0;entryDx=0;entryDy=0;endArrow=none;endFill=0;" edge="1" parent="1" source="61Q3ps2VChqTs0MCk_AO-30" target="N1hwtNOvV3p_5AkpbYzc-1">
          <mxGeometry relative="1" as="geometry" />
        </mxCell>
        <mxCell id="61Q3ps2VChqTs0MCk_AO-30" value="work for" style="shape=rhombus;perimeter=rhombusPerimeter;whiteSpace=wrap;html=1;align=center;" parent="1" vertex="1">
          <mxGeometry x="60" y="230" width="120" height="60" as="geometry" />
        </mxCell>
        <mxCell id="N1hwtNOvV3p_5AkpbYzc-1" value="startDate" style="ellipse;whiteSpace=wrap;html=1;align=center;" vertex="1" parent="1">
          <mxGeometry x="70" y="160" width="100" height="40" as="geometry" />
        </mxCell>
        <mxCell id="N1hwtNOvV3p_5AkpbYzc-3" value="MC" style="rounded=0;whiteSpace=wrap;html=1;" vertex="1" parent="1">
          <mxGeometry x="-710" y="80" width="120" height="60" as="geometry" />
        </mxCell>
        <mxCell id="N1hwtNOvV3p_5AkpbYzc-4" style="edgeStyle=none;rounded=0;orthogonalLoop=1;jettySize=auto;html=1;exitX=1;exitY=0.5;exitDx=0;exitDy=0;entryX=0.5;entryY=0;entryDx=0;entryDy=0;startArrow=none;startFill=0;endArrow=none;endFill=0;" edge="1" parent="1" source="N1hwtNOvV3p_5AkpbYzc-5" target="N1hwtNOvV3p_5AkpbYzc-3">
          <mxGeometry relative="1" as="geometry" />
        </mxCell>
        <mxCell id="N1hwtNOvV3p_5AkpbYzc-5" value="&lt;u&gt;SSN&lt;/u&gt;" style="ellipse;whiteSpace=wrap;html=1;" vertex="1" parent="1">
          <mxGeometry x="-520" y="-60" width="120" height="80" as="geometry" />
        </mxCell>
        <mxCell id="N1hwtNOvV3p_5AkpbYzc-6" style="edgeStyle=none;rounded=0;orthogonalLoop=1;jettySize=auto;html=1;exitX=1;exitY=0.5;exitDx=0;exitDy=0;entryX=0.5;entryY=0;entryDx=0;entryDy=0;startArrow=none;startFill=0;endArrow=none;endFill=0;" edge="1" parent="1" source="N1hwtNOvV3p_5AkpbYzc-7" target="N1hwtNOvV3p_5AkpbYzc-3">
          <mxGeometry relative="1" as="geometry" />
        </mxCell>
        <mxCell id="N1hwtNOvV3p_5AkpbYzc-7" value="name" style="ellipse;whiteSpace=wrap;html=1;" vertex="1" parent="1">
          <mxGeometry x="-885" y="-60" width="120" height="80" as="geometry" />
        </mxCell>
        <mxCell id="N1hwtNOvV3p_5AkpbYzc-8" style="edgeStyle=none;rounded=0;orthogonalLoop=1;jettySize=auto;html=1;exitX=1;exitY=0.5;exitDx=0;exitDy=0;entryX=0;entryY=0.5;entryDx=0;entryDy=0;startArrow=none;startFill=0;endArrow=none;endFill=0;" edge="1" parent="1" source="N1hwtNOvV3p_5AkpbYzc-9" target="N1hwtNOvV3p_5AkpbYzc-7">
          <mxGeometry relative="1" as="geometry" />
        </mxCell>
        <mxCell id="N1hwtNOvV3p_5AkpbYzc-9" value="Fname" style="ellipse;whiteSpace=wrap;html=1;" vertex="1" parent="1">
          <mxGeometry x="-1020" y="-140" width="120" height="80" as="geometry" />
        </mxCell>
        <mxCell id="N1hwtNOvV3p_5AkpbYzc-10" style="edgeStyle=none;rounded=0;orthogonalLoop=1;jettySize=auto;html=1;exitX=1;exitY=0.5;exitDx=0;exitDy=0;startArrow=none;startFill=0;endArrow=none;endFill=0;entryX=0;entryY=0.5;entryDx=0;entryDy=0;" edge="1" parent="1" source="N1hwtNOvV3p_5AkpbYzc-11" target="N1hwtNOvV3p_5AkpbYzc-7">
          <mxGeometry relative="1" as="geometry">
            <mxPoint x="-770" y="440" as="targetPoint" />
          </mxGeometry>
        </mxCell>
        <mxCell id="N1hwtNOvV3p_5AkpbYzc-11" value="Lname" style="ellipse;whiteSpace=wrap;html=1;" vertex="1" parent="1">
          <mxGeometry x="-1020" width="120" height="80" as="geometry" />
        </mxCell>
        <mxCell id="N1hwtNOvV3p_5AkpbYzc-12" style="edgeStyle=none;rounded=0;orthogonalLoop=1;jettySize=auto;html=1;exitX=0.5;exitY=1;exitDx=0;exitDy=0;startArrow=none;startFill=0;endArrow=none;endFill=0;entryX=0.5;entryY=0;entryDx=0;entryDy=0;" edge="1" parent="1" source="N1hwtNOvV3p_5AkpbYzc-13" target="N1hwtNOvV3p_5AkpbYzc-3">
          <mxGeometry relative="1" as="geometry">
            <mxPoint x="-550" y="470" as="targetPoint" />
          </mxGeometry>
        </mxCell>
        <mxCell id="N1hwtNOvV3p_5AkpbYzc-13" value="address" style="ellipse;whiteSpace=wrap;html=1;" vertex="1" parent="1">
          <mxGeometry x="-810" y="-240" width="120" height="80" as="geometry" />
        </mxCell>
        <mxCell id="N1hwtNOvV3p_5AkpbYzc-14" style="edgeStyle=none;rounded=0;orthogonalLoop=1;jettySize=auto;html=1;exitX=0.5;exitY=1;exitDx=0;exitDy=0;entryX=0.5;entryY=0;entryDx=0;entryDy=0;startArrow=none;startFill=0;endArrow=none;endFill=0;" edge="1" parent="1" target="N1hwtNOvV3p_5AkpbYzc-3" source="N1hwtNOvV3p_5AkpbYzc-60">
          <mxGeometry relative="1" as="geometry">
            <mxPoint x="-620.0000000000246" y="-120" as="sourcePoint" />
          </mxGeometry>
        </mxCell>
        <mxCell id="N1hwtNOvV3p_5AkpbYzc-15" value="mentor" style="rounded=0;whiteSpace=wrap;html=1;" vertex="1" parent="1">
          <mxGeometry x="-940" y="740" width="120" height="60" as="geometry" />
        </mxCell>
        <mxCell id="N1hwtNOvV3p_5AkpbYzc-16" style="edgeStyle=none;rounded=0;orthogonalLoop=1;jettySize=auto;html=1;exitX=0.5;exitY=0;exitDx=0;exitDy=0;entryX=0.5;entryY=1;entryDx=0;entryDy=0;startArrow=none;startFill=0;endArrow=none;endFill=0;" edge="1" parent="1" source="N1hwtNOvV3p_5AkpbYzc-17" target="N1hwtNOvV3p_5AkpbYzc-15">
          <mxGeometry relative="1" as="geometry" />
        </mxCell>
        <mxCell id="N1hwtNOvV3p_5AkpbYzc-17" value="&lt;u&gt;SSN&lt;/u&gt;" style="ellipse;whiteSpace=wrap;html=1;" vertex="1" parent="1">
          <mxGeometry x="-940" y="950" width="120" height="80" as="geometry" />
        </mxCell>
        <mxCell id="N1hwtNOvV3p_5AkpbYzc-18" style="edgeStyle=none;rounded=0;orthogonalLoop=1;jettySize=auto;html=1;exitX=1;exitY=0.5;exitDx=0;exitDy=0;startArrow=none;startFill=0;endArrow=none;endFill=0;entryX=0.5;entryY=1;entryDx=0;entryDy=0;" edge="1" parent="1" source="N1hwtNOvV3p_5AkpbYzc-19" target="N1hwtNOvV3p_5AkpbYzc-15">
          <mxGeometry relative="1" as="geometry">
            <mxPoint x="-710" y="600" as="targetPoint" />
          </mxGeometry>
        </mxCell>
        <mxCell id="N1hwtNOvV3p_5AkpbYzc-19" value="name" style="ellipse;whiteSpace=wrap;html=1;" vertex="1" parent="1">
          <mxGeometry x="-1120" y="920" width="120" height="80" as="geometry" />
        </mxCell>
        <mxCell id="N1hwtNOvV3p_5AkpbYzc-20" style="edgeStyle=none;rounded=0;orthogonalLoop=1;jettySize=auto;html=1;exitX=1;exitY=0.5;exitDx=0;exitDy=0;entryX=0;entryY=0.5;entryDx=0;entryDy=0;startArrow=none;startFill=0;endArrow=none;endFill=0;" edge="1" parent="1" source="N1hwtNOvV3p_5AkpbYzc-21" target="N1hwtNOvV3p_5AkpbYzc-19">
          <mxGeometry relative="1" as="geometry" />
        </mxCell>
        <mxCell id="N1hwtNOvV3p_5AkpbYzc-21" value="Fname" style="ellipse;whiteSpace=wrap;html=1;" vertex="1" parent="1">
          <mxGeometry x="-1340" y="820" width="120" height="80" as="geometry" />
        </mxCell>
        <mxCell id="N1hwtNOvV3p_5AkpbYzc-22" style="edgeStyle=none;rounded=0;orthogonalLoop=1;jettySize=auto;html=1;exitX=1;exitY=0.5;exitDx=0;exitDy=0;startArrow=none;startFill=0;endArrow=none;endFill=0;entryX=0;entryY=0.5;entryDx=0;entryDy=0;" edge="1" parent="1" source="N1hwtNOvV3p_5AkpbYzc-23" target="N1hwtNOvV3p_5AkpbYzc-19">
          <mxGeometry relative="1" as="geometry">
            <mxPoint x="-760" y="950" as="targetPoint" />
          </mxGeometry>
        </mxCell>
        <mxCell id="N1hwtNOvV3p_5AkpbYzc-23" value="Lname" style="ellipse;whiteSpace=wrap;html=1;" vertex="1" parent="1">
          <mxGeometry x="-1340" y="940" width="120" height="80" as="geometry" />
        </mxCell>
        <mxCell id="N1hwtNOvV3p_5AkpbYzc-24" style="edgeStyle=none;rounded=0;orthogonalLoop=1;jettySize=auto;html=1;exitX=0.5;exitY=0;exitDx=0;exitDy=0;startArrow=none;startFill=0;endArrow=none;endFill=0;entryX=0.5;entryY=1;entryDx=0;entryDy=0;" edge="1" parent="1" source="N1hwtNOvV3p_5AkpbYzc-25" target="N1hwtNOvV3p_5AkpbYzc-15">
          <mxGeometry relative="1" as="geometry">
            <mxPoint x="-750" y="720" as="targetPoint" />
          </mxGeometry>
        </mxCell>
        <mxCell id="N1hwtNOvV3p_5AkpbYzc-25" value="address" style="ellipse;whiteSpace=wrap;html=1;" vertex="1" parent="1">
          <mxGeometry x="-795" y="950" width="120" height="80" as="geometry" />
        </mxCell>
        <mxCell id="N1hwtNOvV3p_5AkpbYzc-26" style="edgeStyle=none;rounded=0;orthogonalLoop=1;jettySize=auto;html=1;exitX=0.393;exitY=-0.025;exitDx=0;exitDy=0;entryX=0.5;entryY=1;entryDx=0;entryDy=0;startArrow=none;startFill=0;endArrow=none;endFill=0;exitPerimeter=0;" edge="1" parent="1" source="N1hwtNOvV3p_5AkpbYzc-27" target="N1hwtNOvV3p_5AkpbYzc-15">
          <mxGeometry relative="1" as="geometry" />
        </mxCell>
        <mxCell id="N1hwtNOvV3p_5AkpbYzc-27" value="phone number" style="ellipse;whiteSpace=wrap;html=1;" vertex="1" parent="1">
          <mxGeometry x="-650" y="950" width="120" height="80" as="geometry" />
        </mxCell>
        <mxCell id="N1hwtNOvV3p_5AkpbYzc-28" style="edgeStyle=none;rounded=0;orthogonalLoop=1;jettySize=auto;html=1;exitX=1;exitY=1;exitDx=0;exitDy=0;entryX=0.5;entryY=0;entryDx=0;entryDy=0;startArrow=none;startFill=0;endArrow=none;endFill=0;" edge="1" parent="1" source="N1hwtNOvV3p_5AkpbYzc-30">
          <mxGeometry relative="1" as="geometry">
            <mxPoint x="-880" y="620" as="targetPoint" />
          </mxGeometry>
        </mxCell>
        <mxCell id="N1hwtNOvV3p_5AkpbYzc-29" value="" style="edgeStyle=none;rounded=0;orthogonalLoop=1;jettySize=auto;html=1;startArrow=none;startFill=0;endArrow=none;endFill=0;" edge="1" parent="1" source="N1hwtNOvV3p_5AkpbYzc-30" target="N1hwtNOvV3p_5AkpbYzc-41">
          <mxGeometry relative="1" as="geometry" />
        </mxCell>
        <mxCell id="N1hwtNOvV3p_5AkpbYzc-30" value="producer" style="rounded=0;whiteSpace=wrap;html=1;" vertex="1" parent="1">
          <mxGeometry x="-1160" y="510" width="120" height="60" as="geometry" />
        </mxCell>
        <mxCell id="N1hwtNOvV3p_5AkpbYzc-31" style="edgeStyle=none;rounded=0;orthogonalLoop=1;jettySize=auto;html=1;exitX=0.5;exitY=1;exitDx=0;exitDy=0;startArrow=none;startFill=0;endArrow=none;endFill=0;entryX=0.5;entryY=0;entryDx=0;entryDy=0;" edge="1" parent="1" source="N1hwtNOvV3p_5AkpbYzc-33">
          <mxGeometry relative="1" as="geometry">
            <mxPoint x="-880" y="620" as="targetPoint" />
          </mxGeometry>
        </mxCell>
        <mxCell id="N1hwtNOvV3p_5AkpbYzc-32" value="" style="edgeStyle=none;rounded=0;orthogonalLoop=1;jettySize=auto;html=1;startArrow=none;startFill=0;endArrow=none;endFill=0;" edge="1" parent="1" source="N1hwtNOvV3p_5AkpbYzc-33" target="N1hwtNOvV3p_5AkpbYzc-38">
          <mxGeometry relative="1" as="geometry" />
        </mxCell>
        <mxCell id="N1hwtNOvV3p_5AkpbYzc-33" value="singer" style="rounded=0;whiteSpace=wrap;html=1;" vertex="1" parent="1">
          <mxGeometry x="-940" y="490" width="120" height="60" as="geometry" />
        </mxCell>
        <mxCell id="N1hwtNOvV3p_5AkpbYzc-34" style="edgeStyle=none;rounded=0;orthogonalLoop=1;jettySize=auto;html=1;exitX=0;exitY=1;exitDx=0;exitDy=0;entryX=0.5;entryY=0;entryDx=0;entryDy=0;startArrow=none;startFill=0;endArrow=none;endFill=0;" edge="1" parent="1" source="N1hwtNOvV3p_5AkpbYzc-36">
          <mxGeometry relative="1" as="geometry">
            <mxPoint x="-880" y="620" as="targetPoint" />
          </mxGeometry>
        </mxCell>
        <mxCell id="N1hwtNOvV3p_5AkpbYzc-35" value="" style="edgeStyle=none;rounded=0;orthogonalLoop=1;jettySize=auto;html=1;startArrow=none;startFill=0;endArrow=none;endFill=0;" edge="1" parent="1" source="N1hwtNOvV3p_5AkpbYzc-36" target="N1hwtNOvV3p_5AkpbYzc-42">
          <mxGeometry relative="1" as="geometry" />
        </mxCell>
        <mxCell id="N1hwtNOvV3p_5AkpbYzc-36" value="song writer" style="rounded=0;whiteSpace=wrap;html=1;" vertex="1" parent="1">
          <mxGeometry x="-710" y="520" width="120" height="60" as="geometry" />
        </mxCell>
        <mxCell id="N1hwtNOvV3p_5AkpbYzc-37" style="edgeStyle=none;rounded=0;orthogonalLoop=1;jettySize=auto;html=1;exitX=0.5;exitY=1;exitDx=0;exitDy=0;entryX=0.5;entryY=0;entryDx=0;entryDy=0;startArrow=none;startFill=0;endArrow=none;endFill=0;" edge="1" parent="1" target="N1hwtNOvV3p_5AkpbYzc-15">
          <mxGeometry relative="1" as="geometry">
            <mxPoint x="-880" y="700" as="sourcePoint" />
          </mxGeometry>
        </mxCell>
        <mxCell id="N1hwtNOvV3p_5AkpbYzc-38" value="is recored" style="rhombus;whiteSpace=wrap;html=1;" vertex="1" parent="1">
          <mxGeometry x="-920" y="340" width="80" height="80" as="geometry" />
        </mxCell>
        <mxCell id="N1hwtNOvV3p_5AkpbYzc-39" value="" style="edgeStyle=none;rounded=0;orthogonalLoop=1;jettySize=auto;html=1;startArrow=none;startFill=0;endArrow=none;endFill=0;" edge="1" parent="1" source="N1hwtNOvV3p_5AkpbYzc-40" target="N1hwtNOvV3p_5AkpbYzc-38">
          <mxGeometry relative="1" as="geometry" />
        </mxCell>
        <mxCell id="N1hwtNOvV3p_5AkpbYzc-40" value="signature song" style="ellipse;whiteSpace=wrap;html=1;" vertex="1" parent="1">
          <mxGeometry x="-940" y="200" width="120" height="80" as="geometry" />
        </mxCell>
        <mxCell id="N1hwtNOvV3p_5AkpbYzc-41" value="program" style="ellipse;whiteSpace=wrap;html=1;" vertex="1" parent="1">
          <mxGeometry x="-1190" y="350" width="120" height="80" as="geometry" />
        </mxCell>
        <mxCell id="N1hwtNOvV3p_5AkpbYzc-42" value="keep tracking" style="rhombus;whiteSpace=wrap;html=1;" vertex="1" parent="1">
          <mxGeometry x="-690" y="380" width="80" height="80" as="geometry" />
        </mxCell>
        <mxCell id="N1hwtNOvV3p_5AkpbYzc-43" value="" style="edgeStyle=none;rounded=0;orthogonalLoop=1;jettySize=auto;html=1;startArrow=none;startFill=0;endArrow=none;endFill=0;" edge="1" parent="1" source="N1hwtNOvV3p_5AkpbYzc-50" target="N1hwtNOvV3p_5AkpbYzc-42">
          <mxGeometry relative="1" as="geometry" />
        </mxCell>
        <mxCell id="N1hwtNOvV3p_5AkpbYzc-45" value="" style="edgeStyle=none;rounded=0;orthogonalLoop=1;jettySize=auto;html=1;startArrow=none;startFill=0;endArrow=none;endFill=0;" edge="1" parent="1" source="N1hwtNOvV3p_5AkpbYzc-50" target="N1hwtNOvV3p_5AkpbYzc-52">
          <mxGeometry relative="1" as="geometry" />
        </mxCell>
        <mxCell id="N1hwtNOvV3p_5AkpbYzc-47" value="" style="edgeStyle=none;rounded=0;orthogonalLoop=1;jettySize=auto;html=1;startArrow=none;startFill=0;endArrow=none;endFill=0;entryX=0;entryY=0.5;entryDx=0;entryDy=0;exitX=1;exitY=0.5;exitDx=0;exitDy=0;" edge="1" parent="1" source="N1hwtNOvV3p_5AkpbYzc-50" target="N1hwtNOvV3p_5AkpbYzc-53">
          <mxGeometry relative="1" as="geometry" />
        </mxCell>
        <mxCell id="N1hwtNOvV3p_5AkpbYzc-50" value="lis of song" style="ellipse;whiteSpace=wrap;html=1;" vertex="1" parent="1">
          <mxGeometry x="-710" y="250" width="120" height="80" as="geometry" />
        </mxCell>
        <mxCell id="N1hwtNOvV3p_5AkpbYzc-61" style="edgeStyle=none;rounded=0;orthogonalLoop=1;jettySize=auto;html=1;exitX=0;exitY=0.5;exitDx=0;exitDy=0;entryX=1;entryY=0.5;entryDx=0;entryDy=0;endArrow=none;endFill=0;" edge="1" parent="1" source="N1hwtNOvV3p_5AkpbYzc-51" target="N1hwtNOvV3p_5AkpbYzc-50">
          <mxGeometry relative="1" as="geometry" />
        </mxCell>
        <mxCell id="N1hwtNOvV3p_5AkpbYzc-51" value="songNum" style="ellipse;whiteSpace=wrap;html=1;" vertex="1" parent="1">
          <mxGeometry x="-520" y="110" width="120" height="60" as="geometry" />
        </mxCell>
        <mxCell id="N1hwtNOvV3p_5AkpbYzc-52" value="name&amp;nbsp;" style="ellipse;whiteSpace=wrap;html=1;" vertex="1" parent="1">
          <mxGeometry x="-520" y="260" width="120" height="60" as="geometry" />
        </mxCell>
        <mxCell id="N1hwtNOvV3p_5AkpbYzc-53" value="year of release" style="ellipse;whiteSpace=wrap;html=1;" vertex="1" parent="1">
          <mxGeometry x="-520" y="180" width="120" height="60" as="geometry" />
        </mxCell>
        <mxCell id="N1hwtNOvV3p_5AkpbYzc-62" style="edgeStyle=none;rounded=0;orthogonalLoop=1;jettySize=auto;html=1;exitX=0;exitY=0.5;exitDx=0;exitDy=0;endArrow=none;endFill=0;" edge="1" parent="1" source="N1hwtNOvV3p_5AkpbYzc-54">
          <mxGeometry relative="1" as="geometry">
            <mxPoint x="-590" y="290" as="targetPoint" />
          </mxGeometry>
        </mxCell>
        <mxCell id="N1hwtNOvV3p_5AkpbYzc-54" value="name of original singer" style="ellipse;whiteSpace=wrap;html=1;" vertex="1" parent="1">
          <mxGeometry x="-520" y="340" width="120" height="60" as="geometry" />
        </mxCell>
        <mxCell id="N1hwtNOvV3p_5AkpbYzc-63" style="edgeStyle=none;rounded=0;orthogonalLoop=1;jettySize=auto;html=1;exitX=0;exitY=0.5;exitDx=0;exitDy=0;entryX=1;entryY=0.5;entryDx=0;entryDy=0;endArrow=none;endFill=0;" edge="1" parent="1" source="N1hwtNOvV3p_5AkpbYzc-55" target="N1hwtNOvV3p_5AkpbYzc-50">
          <mxGeometry relative="1" as="geometry" />
        </mxCell>
        <mxCell id="N1hwtNOvV3p_5AkpbYzc-55" value="composer" style="ellipse;whiteSpace=wrap;html=1;" vertex="1" parent="1">
          <mxGeometry x="-520" y="420" width="120" height="60" as="geometry" />
        </mxCell>
        <mxCell id="N1hwtNOvV3p_5AkpbYzc-56" value="O" style="ellipse;whiteSpace=wrap;html=1;aspect=fixed;" vertex="1" parent="1">
          <mxGeometry x="-920" y="620" width="80" height="80" as="geometry" />
        </mxCell>
        <mxCell id="N1hwtNOvV3p_5AkpbYzc-57" value="" style="shape=requiredInterface;html=1;verticalLabelPosition=bottom;sketch=0;rotation=-150;" vertex="1" parent="1">
          <mxGeometry x="-975" y="580" width="10" height="20" as="geometry" />
        </mxCell>
        <mxCell id="N1hwtNOvV3p_5AkpbYzc-58" value="" style="shape=requiredInterface;html=1;verticalLabelPosition=bottom;sketch=0;rotation=-90;" vertex="1" parent="1">
          <mxGeometry x="-885" y="580" width="10" height="20" as="geometry" />
        </mxCell>
        <mxCell id="N1hwtNOvV3p_5AkpbYzc-59" value="" style="shape=requiredInterface;html=1;verticalLabelPosition=bottom;sketch=0;rotation=-15;" vertex="1" parent="1">
          <mxGeometry x="-805" y="590" width="10" height="20" as="geometry" />
        </mxCell>
        <mxCell id="N1hwtNOvV3p_5AkpbYzc-60" value="phoneNumber" style="ellipse;whiteSpace=wrap;html=1;" vertex="1" parent="1">
          <mxGeometry x="-600" y="-240" width="120" height="80" as="geometry" />
        </mxCell>
        <mxCell id="N1hwtNOvV3p_5AkpbYzc-64" value="number of song" style="ellipse;whiteSpace=wrap;html=1;align=center;" vertex="1" parent="1">
          <mxGeometry x="90" y="440" width="100" height="40" as="geometry" />
        </mxCell>
        <mxCell id="N1hwtNOvV3p_5AkpbYzc-67" style="edgeStyle=none;rounded=0;orthogonalLoop=1;jettySize=auto;html=1;exitX=0.5;exitY=1;exitDx=0;exitDy=0;entryX=0.5;entryY=0;entryDx=0;entryDy=0;endArrow=none;endFill=0;" edge="1" parent="1" source="N1hwtNOvV3p_5AkpbYzc-66" target="42W1X6iEcGKFLnr81iRU-1">
          <mxGeometry relative="1" as="geometry" />
        </mxCell>
        <mxCell id="N1hwtNOvV3p_5AkpbYzc-66" value="&lt;u&gt;epID&lt;/u&gt;" style="ellipse;whiteSpace=wrap;html=1;align=center;" vertex="1" parent="1">
          <mxGeometry x="310" y="440" width="100" height="40" as="geometry" />
        </mxCell>
        <mxCell id="N1hwtNOvV3p_5AkpbYzc-68" value="composer" style="ellipse;whiteSpace=wrap;html=1;align=center;" vertex="1" parent="1">
          <mxGeometry x="750" y="600" width="100" height="40" as="geometry" />
        </mxCell>
        <mxCell id="N1hwtNOvV3p_5AkpbYzc-69" value="og singer" style="ellipse;whiteSpace=wrap;html=1;align=center;" vertex="1" parent="1">
          <mxGeometry x="750" y="660" width="100" height="40" as="geometry" />
        </mxCell>
      </root>
    </mxGraphModel>
  </diagram>
</mxfile>
